<?xml version="1.0" encoding="UTF-8" standalone="no"?>
<!DOCTYPE svg PUBLIC "-//W3C//DTD SVG 1.1//EN"
 "http://www.w3.org/Graphics/SVG/1.1/DTD/svg11.dtd">
<!-- Generated by graphviz version 14.1.3 (20260303.0454)
 -->
<!-- Title: ModuleDeps Pages: 1 -->
<svg width="938pt" height="373pt"
 viewBox="0.00 0.00 938.00 373.00" xmlns="http://www.w3.org/2000/svg" xmlns:xlink="http://www.w3.org/1999/xlink">
<g id="graph0" class="graph" transform="scale(1 1) rotate(0) translate(4 368.5)">
<title>ModuleDeps</title>
<polygon fill="white" stroke="none" points="-4,4 -4,-368.5 934.12,-368.5 934.12,4 -4,4"/>
<g id="clust1" class="cluster">
<title>cluster_legend</title>
<polygon fill="none" stroke="black" stroke-dasharray="5,2" points="543.12,-208 543.12,-356.5 922.12,-356.5 922.12,-208 543.12,-208"/>
<text xml:space="preserve" text-anchor="middle" x="732.62" y="-339.2" font-family="Times,serif" font-size="14.00">Legend</text>
</g>
<!-- ADDRESS -->
<g id="node1" class="node">
<title>ADDRESS</title>
<polygon fill="#e8f4f8" stroke="black" points="324.75,-36 243.5,-36 243.5,0 324.75,0 324.75,-36"/>
<text xml:space="preserve" text-anchor="middle" x="284.12" y="-12.2" font-family="Helvetica,sans-Serif" font-size="14.00">ADDRESS</text>
</g>
<!-- ACTOR&#45;MODEL -->
<g id="node2" class="node">
<title>ACTOR&#45;MODEL</title>
<polygon fill="#e8f4f8" stroke="black" points="234.75,-108 117.5,-108 117.5,-72 234.75,-72 234.75,-108"/>
<text xml:space="preserve" text-anchor="middle" x="176.12" y="-84.2" font-family="Helvetica,sans-Serif" font-size="14.00">ACTOR&#45;MODEL</text>
</g>
<!-- ACTOR&#45;MODEL&#45;&gt;ADDRESS -->
<g id="edge1" class="edge">
<title>ACTOR&#45;MODEL&#45;&gt;ADDRESS</title>
<path fill="none" stroke="#666666" stroke-dasharray="5,2" d="M203.1,-71.52C216.73,-62.68 233.46,-51.84 248.17,-42.3"/>
<polygon fill="#666666" stroke="#666666" points="249.74,-45.46 256.22,-37.08 245.93,-39.59 249.74,-45.46"/>
</g>
<!-- SORTS -->
<g id="node3" class="node">
<title>SORTS</title>
<polygon fill="#e8f4f8" stroke="black" points="315.75,-108 252.5,-108 252.5,-72 315.75,-72 315.75,-108"/>
<text xml:space="preserve" text-anchor="middle" x="284.12" y="-84.2" font-family="Helvetica,sans-Serif" font-size="14.00">SORTS</text>
</g>
<!-- SORTS&#45;&gt;ADDRESS -->
<g id="edge2" class="edge">
<title>SORTS&#45;&gt;ADDRESS</title>
<path fill="none" stroke="#0066cc" d="M284.12,-71.7C284.12,-64.41 284.12,-55.73 284.12,-47.54"/>
<polygon fill="#0066cc" stroke="#0066cc" points="287.63,-47.62 284.13,-37.62 280.63,-47.62 287.63,-47.62"/>
</g>
<!-- SORTS&#45;AUX -->
<g id="node4" class="node">
<title>SORTS&#45;AUX</title>
<polygon fill="#e8f4f8" stroke="black" points="369.88,-180 274.38,-180 274.38,-144 369.88,-144 369.88,-180"/>
<text xml:space="preserve" text-anchor="middle" x="322.12" y="-156.2" font-family="Helvetica,sans-Serif" font-size="14.00">SORTS&#45;AUX</text>
</g>
<!-- SORTS&#45;AUX&#45;&gt;SORTS -->
<g id="edge3" class="edge">
<title>SORTS&#45;AUX&#45;&gt;SORTS</title>
<path fill="none" stroke="#0066cc" d="M312.73,-143.7C308.54,-135.98 303.51,-126.71 298.84,-118.11"/>
<polygon fill="#0066cc" stroke="#0066cc" points="301.98,-116.55 294.13,-109.43 295.83,-119.89 301.98,-116.55"/>
</g>
<!-- MSG -->
<g id="node5" class="node">
<title>MSG</title>
<polygon fill="#e8f4f8" stroke="black" points="480.12,-180 426.12,-180 426.12,-144 480.12,-144 480.12,-180"/>
<text xml:space="preserve" text-anchor="middle" x="453.12" y="-156.2" font-family="Helvetica,sans-Serif" font-size="14.00">MSG</text>
</g>
<!-- MSG&#45;&gt;SORTS -->
<g id="edge4" class="edge">
<title>MSG&#45;&gt;SORTS</title>
<path fill="none" stroke="#0066cc" d="M425.97,-149.75C399.18,-138.66 357.82,-121.53 326.67,-108.62"/>
<polygon fill="#0066cc" stroke="#0066cc" points="328.09,-105.42 317.51,-104.83 325.41,-111.89 328.09,-105.42"/>
</g>
<!-- AUX -->
<g id="node11" class="node">
<title>AUX</title>
<polygon fill="#fff4e6" stroke="black" points="480.12,-108 430.12,-108 426.12,-104 426.12,-72 476.12,-72 480.12,-76 480.12,-108"/>
<polyline fill="none" stroke="black" points="476.12,-104 426.12,-104"/>
<polyline fill="none" stroke="black" points="476.12,-104 476.12,-72"/>
<polyline fill="none" stroke="black" points="476.12,-104 480.12,-108"/>
<text xml:space="preserve" text-anchor="middle" x="453.12" y="-84.2" font-family="Helvetica,sans-Serif" font-size="14.00">AUX</text>
</g>
<!-- MSG&#45;&gt;AUX -->
<g id="edge5" class="edge">
<title>MSG&#45;&gt;AUX</title>
<path fill="none" stroke="#0066cc" d="M453.12,-143.7C453.12,-136.41 453.12,-127.73 453.12,-119.54"/>
<polygon fill="#0066cc" stroke="#0066cc" points="456.63,-119.62 453.13,-109.62 449.63,-119.62 456.63,-119.62"/>
</g>
<!-- NODE -->
<g id="node6" class="node">
<title>NODE</title>
<polygon fill="#e8f4f8" stroke="black" points="363,-252 307.25,-252 307.25,-216 363,-216 363,-252"/>
<text xml:space="preserve" text-anchor="middle" x="335.12" y="-228.2" font-family="Helvetica,sans-Serif" font-size="14.00">NODE</text>
</g>
<!-- NODE&#45;&gt;SORTS -->
<g id="edge6" class="edge">
<title>NODE&#45;&gt;SORTS</title>
<path fill="none" stroke="#0066cc" d="M307,-219.81C291.58,-210.93 273.88,-197.61 265.12,-180 255.53,-160.7 261.56,-136.68 269.29,-118.47"/>
<polygon fill="#0066cc" stroke="#0066cc" points="272.37,-120.15 273.42,-109.6 266.02,-117.19 272.37,-120.15"/>
</g>
<!-- NODE&#45;&gt;MSG -->
<g id="edge8" class="edge">
<title>NODE&#45;&gt;MSG</title>
<path fill="none" stroke="#0066cc" d="M360.01,-215.76C364.02,-213.1 368.16,-210.43 372.12,-208 386.25,-199.33 402.12,-190.35 416.04,-182.72"/>
<polygon fill="#0066cc" stroke="#0066cc" points="417.34,-185.99 424.46,-178.14 414,-179.84 417.34,-185.99"/>
</g>
<!-- NODE&#45;&gt;AUX -->
<g id="edge7" class="edge">
<title>NODE&#45;&gt;AUX</title>
<path fill="none" stroke="#0066cc" d="M349.59,-215.59C370.14,-190.86 407.91,-145.41 431.71,-116.77"/>
<polygon fill="#0066cc" stroke="#0066cc" points="434.24,-119.2 437.94,-109.27 428.86,-114.73 434.24,-119.2"/>
</g>
<!-- MONITOR -->
<g id="node7" class="node">
<title>MONITOR</title>
<polygon fill="#e8f4f8" stroke="black" points="462.75,-252 381.5,-252 381.5,-216 462.75,-216 462.75,-252"/>
<text xml:space="preserve" text-anchor="middle" x="422.12" y="-228.2" font-family="Helvetica,sans-Serif" font-size="14.00">MONITOR</text>
</g>
<!-- MONITOR&#45;&gt;MSG -->
<g id="edge9" class="edge">
<title>MONITOR&#45;&gt;MSG</title>
<path fill="none" stroke="#0066cc" d="M429.79,-215.7C433.17,-208.07 437.22,-198.92 440.99,-190.4"/>
<polygon fill="#0066cc" stroke="#0066cc" points="444.09,-192.05 444.94,-181.49 437.69,-189.21 444.09,-192.05"/>
</g>
<!-- AUX&#45;COMMON -->
<g id="node8" class="node">
<title>AUX&#45;COMMON</title>
<polygon fill="#fff4e6" stroke="black" points="392.25,-324 282,-324 278,-320 278,-288 388.25,-288 392.25,-292 392.25,-324"/>
<polyline fill="none" stroke="black" points="388.25,-320 278,-320"/>
<polyline fill="none" stroke="black" points="388.25,-320 388.25,-288"/>
<polyline fill="none" stroke="black" points="388.25,-320 392.25,-324"/>
<text xml:space="preserve" text-anchor="middle" x="335.12" y="-300.2" font-family="Helvetica,sans-Serif" font-size="14.00">AUX&#45;COMMON</text>
</g>
<!-- AUX&#45;COMMON&#45;&gt;SORTS -->
<g id="edge12" class="edge">
<title>AUX&#45;COMMON&#45;&gt;SORTS</title>
<path fill="none" stroke="#0066cc" d="M319.25,-287.62C299.72,-264.89 267.72,-222.87 256.12,-180 251.95,-164.55 252.27,-159.53 256.12,-144 258.32,-135.15 262.29,-126.15 266.57,-118.14"/>
<polygon fill="#0066cc" stroke="#0066cc" points="269.53,-120 271.48,-109.59 263.46,-116.51 269.53,-120"/>
</g>
<!-- AUX&#45;COMMON&#45;&gt;NODE -->
<g id="edge10" class="edge">
<title>AUX&#45;COMMON&#45;&gt;NODE</title>
<path fill="none" stroke="#0066cc" d="M335.12,-287.7C335.12,-280.41 335.12,-271.73 335.12,-263.54"/>
<polygon fill="#0066cc" stroke="#0066cc" points="338.63,-263.62 335.13,-253.62 331.63,-263.62 338.63,-263.62"/>
</g>
<!-- AUX&#45;COMMON&#45;&gt;MONITOR -->
<g id="edge11" class="edge">
<title>AUX&#45;COMMON&#45;&gt;MONITOR</title>
<path fill="none" stroke="#0066cc" d="M356.63,-287.7C367.19,-279.2 380.1,-268.81 391.66,-259.51"/>
<polygon fill="#0066cc" stroke="#0066cc" points="393.79,-262.29 399.39,-253.3 389.4,-256.84 393.79,-262.29"/>
</g>
<!-- PARAMETERS&#45;COMMON -->
<g id="node9" class="node">
<title>PARAMETERS&#45;COMMON</title>
<polygon fill="#fff4e6" stroke="black" points="180.25,-180 4,-180 0,-176 0,-144 176.25,-144 180.25,-148 180.25,-180"/>
<polyline fill="none" stroke="black" points="176.25,-176 0,-176"/>
<polyline fill="none" stroke="black" points="176.25,-176 176.25,-144"/>
<polyline fill="none" stroke="black" points="176.25,-176 180.25,-180"/>
<text xml:space="preserve" text-anchor="middle" x="90.12" y="-156.2" font-family="Helvetica,sans-Serif" font-size="14.00">PARAMETERS&#45;COMMON</text>
</g>
<!-- PARAMETERS&#45;COMMON&#45;&gt;SORTS -->
<g id="edge13" class="edge">
<title>PARAMETERS&#45;COMMON&#45;&gt;SORTS</title>
<path fill="none" stroke="#0066cc" d="M143.91,-143.52C171.09,-134.46 204.74,-122.87 241.79,-108.79"/>
<polygon fill="#0066cc" stroke="#0066cc" points="242.83,-112.14 250.92,-105.29 240.33,-105.6 242.83,-112.14"/>
</g>
<!-- LABEL&#45;GRAPH -->
<g id="node10" class="node">
<title>LABEL&#45;GRAPH</title>
<polygon fill="#fff4e6" stroke="black" points="647.75,-180 540.5,-180 536.5,-176 536.5,-144 643.75,-144 647.75,-148 647.75,-180"/>
<polyline fill="none" stroke="black" points="643.75,-176 536.5,-176"/>
<polyline fill="none" stroke="black" points="643.75,-176 643.75,-144"/>
<polyline fill="none" stroke="black" points="643.75,-176 647.75,-180"/>
<text xml:space="preserve" text-anchor="middle" x="592.12" y="-156.2" font-family="Helvetica,sans-Serif" font-size="14.00">LABEL&#45;GRAPH</text>
</g>
<!-- LABEL&#45;GRAPH&#45;&gt;AUX -->
<g id="edge14" class="edge">
<title>LABEL&#45;GRAPH&#45;&gt;AUX</title>
<path fill="none" stroke="#0066cc" d="M557.41,-143.52C537.05,-133.26 511.32,-120.31 490.51,-109.83"/>
<polygon fill="#0066cc" stroke="#0066cc" points="492.29,-106.81 481.79,-105.43 489.15,-113.06 492.29,-106.81"/>
</g>
<!-- AUX&#45;&gt;ADDRESS -->
<g id="edge16" class="edge">
<title>AUX&#45;&gt;ADDRESS</title>
<path fill="none" stroke="#0066cc" d="M425.97,-77.75C401.6,-67.66 365.18,-52.57 335.34,-40.21"/>
<polygon fill="#0066cc" stroke="#0066cc" points="337.07,-37.14 326.49,-36.55 334.39,-43.61 337.07,-37.14"/>
</g>
<!-- AUX&#45;&gt;AUX -->
<g id="edge15" class="edge">
<title>AUX&#45;&gt;AUX</title>
<path fill="none" stroke="#0066cc" d="M480.37,-103.49C490.15,-103.78 498.12,-99.28 498.12,-90 498.12,-84.63 495.46,-80.87 491.32,-78.7"/>
<polygon fill="#0066cc" stroke="#0066cc" points="492.34,-75.34 481.85,-76.81 490.97,-82.2 492.34,-75.34"/>
</g>
<!-- DNS -->
<g id="node12" class="node">
<title>DNS</title>
<polygon fill="#fff4e6" stroke="black" points="535.12,-252 485.12,-252 481.12,-248 481.12,-216 531.12,-216 535.12,-220 535.12,-252"/>
<polyline fill="none" stroke="black" points="531.12,-248 481.12,-248"/>
<polyline fill="none" stroke="black" points="531.12,-248 531.12,-216"/>
<polyline fill="none" stroke="black" points="531.12,-248 535.12,-252"/>
<text xml:space="preserve" text-anchor="middle" x="508.12" y="-228.2" font-family="Helvetica,sans-Serif" font-size="14.00">DNS</text>
</g>
<!-- DNS&#45;&gt;MSG -->
<g id="edge18" class="edge">
<title>DNS&#45;&gt;MSG</title>
<path fill="none" stroke="#0066cc" d="M494.53,-215.7C488.2,-207.64 480.54,-197.89 473.54,-188.98"/>
<polygon fill="#0066cc" stroke="#0066cc" points="476.43,-187 467.5,-181.29 470.93,-191.32 476.43,-187"/>
</g>
<!-- DNS&#45;&gt;AUX -->
<g id="edge17" class="edge">
<title>DNS&#45;&gt;AUX</title>
<path fill="none" stroke="#0066cc" d="M506.43,-215.67C504.17,-197.29 499.24,-167.69 489.12,-144 485.21,-134.84 479.63,-125.6 474.03,-117.46"/>
<polygon fill="#0066cc" stroke="#0066cc" points="476.88,-115.42 468.18,-109.38 471.21,-119.53 476.88,-115.42"/>
</g>
<!-- fmod -->
<g id="node13" class="node">
<title>fmod</title>
<polygon fill="none" stroke="black" points="678.62,-324 551.62,-324 551.62,-288 678.62,-288 678.62,-324"/>
<text xml:space="preserve" text-anchor="middle" x="615.12" y="-300.2" font-family="Helvetica,sans-Serif" font-size="14.00">Functional Module</text>
</g>
<!-- mod -->
<g id="node14" class="node">
<title>mod</title>
<polygon fill="none" stroke="black" points="807.38,-324 700.88,-324 696.88,-320 696.88,-288 803.38,-288 807.38,-292 807.38,-324"/>
<polyline fill="none" stroke="black" points="803.38,-320 696.88,-320"/>
<polyline fill="none" stroke="black" points="803.38,-320 803.38,-288"/>
<polyline fill="none" stroke="black" points="803.38,-320 807.38,-324"/>
<text xml:space="preserve" text-anchor="middle" x="752.12" y="-300.2" font-family="Helvetica,sans-Serif" font-size="14.00">System Module</text>
</g>
<!-- include -->
<g id="node15" class="node">
<title>include</title>
<text xml:space="preserve" text-anchor="middle" x="870.12" y="-300.2" font-family="Helvetica,sans-Serif" font-size="14.00">include (inc)</text>
</g>
<!-- protect -->
<g id="node16" class="node">
<title>protect</title>
<text xml:space="preserve" text-anchor="middle" x="870.12" y="-228.2" font-family="Helvetica,sans-Serif" font-size="14.00" fill="#666666">protect (pr)</text>
</g>
<!-- include&#45;&gt;protect -->
</g>
</svg>
