<?xml version="1.0" encoding="UTF-8" standalone="no"?>
<!DOCTYPE svg PUBLIC "-//W3C//DTD SVG 1.1//EN"
 "http://www.w3.org/Graphics/SVG/1.1/DTD/svg11.dtd">
<!-- Generated by graphviz version 14.1.3 (20260303.0454)
 -->
<!-- Title: ActorStructure Pages: 1 -->
<svg width="236pt" height="1102pt"
 viewBox="0.00 0.00 236.00 1102.00" xmlns="http://www.w3.org/2000/svg" xmlns:xlink="http://www.w3.org/1999/xlink">
<g id="graph0" class="graph" transform="scale(1 1) rotate(0) translate(4 1098)">
<title>ActorStructure</title>
<polygon fill="white" stroke="none" points="-4,4 -4,-1098 231.5,-1098 231.5,4 -4,4"/>
<!-- Client -->
<g id="node1" class="node">
<title>Client</title>
<polygon fill="#e8f4f8" stroke="none" points="8,-4 8,-256 219.5,-256 219.5,-4 8,-4"/>
<polygon fill="#1976d2" stroke="none" points="8,-235 8,-256 219.5,-256 219.5,-235 8,-235"/>
<polygon fill="none" stroke="black" points="8,-235 8,-256 219.5,-256 219.5,-235 8,-235"/>
<text xml:space="preserve" text-anchor="start" x="95" y="-240.7" font-family="Helvetica,sans-Serif" font-weight="bold" font-size="14.00" fill="white">Client</text>
<polygon fill="none" stroke="black" points="8,-214 8,-235 116.75,-235 116.75,-214 8,-214"/>
<text xml:space="preserve" text-anchor="start" x="40.25" y="-220.75" font-family="Helvetica,sans-Serif" font-size="14.00">queries</text>
<polygon fill="none" stroke="black" points="116.75,-214 116.75,-235 219.5,-235 219.5,-214 116.75,-214"/>
<text xml:space="preserve" text-anchor="start" x="134.38" y="-220.75" font-family="Helvetica,sans-Serif" font-size="14.00">List{Query}</text>
<polygon fill="none" stroke="black" points="8,-193 8,-214 116.75,-214 116.75,-193 8,-193"/>
<text xml:space="preserve" text-anchor="start" x="38.38" y="-199.75" font-family="Helvetica,sans-Serif" font-size="14.00">resolver</text>
<polygon fill="none" stroke="black" points="116.75,-193 116.75,-214 219.5,-214 219.5,-193 116.75,-193"/>
<text xml:space="preserve" text-anchor="start" x="143.38" y="-199.75" font-family="Helvetica,sans-Serif" font-size="14.00">Address</text>
<polygon fill="none" stroke="black" points="8,-172 8,-193 116.75,-193 116.75,-172 8,-172"/>
<text xml:space="preserve" text-anchor="start" x="30.12" y="-178.75" font-family="Helvetica,sans-Serif" font-size="14.00">notifyDone</text>
<polygon fill="none" stroke="black" points="116.75,-172 116.75,-193 219.5,-193 219.5,-172 116.75,-172"/>
<text xml:space="preserve" text-anchor="start" x="143.38" y="-178.75" font-family="Helvetica,sans-Serif" font-size="14.00">Address</text>
<polygon fill="none" stroke="black" points="8,-151 8,-172 116.75,-172 116.75,-151 8,-151"/>
<text xml:space="preserve" text-anchor="start" x="53.75" y="-157.75" font-family="Helvetica,sans-Serif" font-size="14.00">init</text>
<polygon fill="none" stroke="black" points="116.75,-151 116.75,-172 219.5,-172 219.5,-151 116.75,-151"/>
<text xml:space="preserve" text-anchor="start" x="154.62" y="-157.75" font-family="Helvetica,sans-Serif" font-size="14.00">Bool</text>
<polygon fill="none" stroke="black" points="8,-130 8,-151 116.75,-151 116.75,-130 8,-130"/>
<text xml:space="preserve" text-anchor="start" x="34.25" y="-136.75" font-family="Helvetica,sans-Serif" font-size="14.00">msgsRcv</text>
<polygon fill="none" stroke="black" points="116.75,-130 116.75,-151 219.5,-151 219.5,-130 116.75,-130"/>
<text xml:space="preserve" text-anchor="start" x="119.75" y="-136.75" font-family="Helvetica,sans-Serif" font-size="14.00">IdAddrFloatMap</text>
<polygon fill="none" stroke="black" points="8,-109 8,-130 116.75,-130 116.75,-109 8,-109"/>
<text xml:space="preserve" text-anchor="start" x="32" y="-115.75" font-family="Helvetica,sans-Serif" font-size="14.00">msgsSent</text>
<polygon fill="none" stroke="black" points="116.75,-109 116.75,-130 219.5,-130 219.5,-109 116.75,-109"/>
<text xml:space="preserve" text-anchor="start" x="119.75" y="-115.75" font-family="Helvetica,sans-Serif" font-size="14.00">IdAddrFloatMap</text>
<polygon fill="none" stroke="black" points="8,-88 8,-109 116.75,-109 116.75,-88 8,-88"/>
<text xml:space="preserve" text-anchor="start" x="38" y="-94.75" font-family="Helvetica,sans-Serif" font-size="14.00">totalRcv</text>
<polygon fill="none" stroke="black" points="116.75,-88 116.75,-109 219.5,-109 219.5,-88 116.75,-88"/>
<text xml:space="preserve" text-anchor="start" x="125.38" y="-94.75" font-family="Helvetica,sans-Serif" font-size="14.00">AddrFloatMap</text>
<polygon fill="none" stroke="black" points="8,-67 8,-88 116.75,-88 116.75,-67 8,-67"/>
<text xml:space="preserve" text-anchor="start" x="35.75" y="-73.75" font-family="Helvetica,sans-Serif" font-size="14.00">totalSent</text>
<polygon fill="none" stroke="black" points="116.75,-67 116.75,-88 219.5,-88 219.5,-67 116.75,-67"/>
<text xml:space="preserve" text-anchor="start" x="125.38" y="-73.75" font-family="Helvetica,sans-Serif" font-size="14.00">AddrFloatMap</text>
<polygon fill="none" stroke="black" points="8,-46 8,-67 116.75,-67 116.75,-46 8,-46"/>
<text xml:space="preserve" text-anchor="start" x="27.12" y="-52.75" font-family="Helvetica,sans-Serif" font-size="14.00">clientQSent</text>
<polygon fill="none" stroke="black" points="116.75,-46 116.75,-67 219.5,-67 219.5,-46 116.75,-46"/>
<text xml:space="preserve" text-anchor="start" x="157.62" y="-52.75" font-family="Helvetica,sans-Serif" font-size="14.00">Nat</text>
<polygon fill="none" stroke="black" points="8,-25 8,-46 116.75,-46 116.75,-25 8,-25"/>
<text xml:space="preserve" text-anchor="start" x="11" y="-31.75" font-family="Helvetica,sans-Serif" font-size="14.00">clientQAnswered</text>
<polygon fill="none" stroke="black" points="116.75,-25 116.75,-46 219.5,-46 219.5,-25 116.75,-25"/>
<text xml:space="preserve" text-anchor="start" x="157.62" y="-31.75" font-family="Helvetica,sans-Serif" font-size="14.00">Nat</text>
<polygon fill="none" stroke="black" points="8,-4 8,-25 219.5,-25 219.5,-4 8,-4"/>
<text xml:space="preserve" text-anchor="start" x="76.62" y="-10.75" font-family="Helvetica,sans-Serif" font-size="14.00">... (12 more)</text>
</g>
<!-- Monitor -->
<g id="node2" class="node">
<title>Monitor</title>
<polygon fill="#e8f4f8" stroke="none" points="8,-282 8,-534 219.5,-534 219.5,-282 8,-282"/>
<polygon fill="#1976d2" stroke="none" points="8,-513 8,-534 219.5,-534 219.5,-513 8,-513"/>
<polygon fill="none" stroke="black" points="8,-513 8,-534 219.5,-534 219.5,-513 8,-513"/>
<text xml:space="preserve" text-anchor="start" x="88.62" y="-518.7" font-family="Helvetica,sans-Serif" font-weight="bold" font-size="14.00" fill="white">Monitor</text>
<polygon fill="none" stroke="black" points="8,-492 8,-513 116.75,-513 116.75,-492 8,-492"/>
<text xml:space="preserve" text-anchor="start" x="53.75" y="-498.75" font-family="Helvetica,sans-Serif" font-size="14.00">init</text>
<polygon fill="none" stroke="black" points="116.75,-492 116.75,-513 219.5,-513 219.5,-492 116.75,-492"/>
<text xml:space="preserve" text-anchor="start" x="154.62" y="-498.75" font-family="Helvetica,sans-Serif" font-size="14.00">Bool</text>
<polygon fill="none" stroke="black" points="8,-471 8,-492 116.75,-492 116.75,-471 8,-471"/>
<text xml:space="preserve" text-anchor="start" x="34.25" y="-477.75" font-family="Helvetica,sans-Serif" font-size="14.00">msgsRcv</text>
<polygon fill="none" stroke="black" points="116.75,-471 116.75,-492 219.5,-492 219.5,-471 116.75,-471"/>
<text xml:space="preserve" text-anchor="start" x="119.75" y="-477.75" font-family="Helvetica,sans-Serif" font-size="14.00">IdAddrFloatMap</text>
<polygon fill="none" stroke="black" points="8,-450 8,-471 116.75,-471 116.75,-450 8,-450"/>
<text xml:space="preserve" text-anchor="start" x="32" y="-456.75" font-family="Helvetica,sans-Serif" font-size="14.00">msgsSent</text>
<polygon fill="none" stroke="black" points="116.75,-450 116.75,-471 219.5,-471 219.5,-450 116.75,-450"/>
<text xml:space="preserve" text-anchor="start" x="119.75" y="-456.75" font-family="Helvetica,sans-Serif" font-size="14.00">IdAddrFloatMap</text>
<polygon fill="none" stroke="black" points="8,-429 8,-450 116.75,-450 116.75,-429 8,-429"/>
<text xml:space="preserve" text-anchor="start" x="38" y="-435.75" font-family="Helvetica,sans-Serif" font-size="14.00">totalRcv</text>
<polygon fill="none" stroke="black" points="116.75,-429 116.75,-450 219.5,-450 219.5,-429 116.75,-429"/>
<text xml:space="preserve" text-anchor="start" x="125.38" y="-435.75" font-family="Helvetica,sans-Serif" font-size="14.00">AddrFloatMap</text>
<polygon fill="none" stroke="black" points="8,-408 8,-429 116.75,-429 116.75,-408 8,-408"/>
<text xml:space="preserve" text-anchor="start" x="35.75" y="-414.75" font-family="Helvetica,sans-Serif" font-size="14.00">totalSent</text>
<polygon fill="none" stroke="black" points="116.75,-408 116.75,-429 219.5,-429 219.5,-408 116.75,-408"/>
<text xml:space="preserve" text-anchor="start" x="125.38" y="-414.75" font-family="Helvetica,sans-Serif" font-size="14.00">AddrFloatMap</text>
<polygon fill="none" stroke="black" points="8,-387 8,-408 116.75,-408 116.75,-387 8,-387"/>
<text xml:space="preserve" text-anchor="start" x="27.12" y="-393.75" font-family="Helvetica,sans-Serif" font-size="14.00">clientQSent</text>
<polygon fill="none" stroke="black" points="116.75,-387 116.75,-408 219.5,-408 219.5,-387 116.75,-387"/>
<text xml:space="preserve" text-anchor="start" x="157.62" y="-393.75" font-family="Helvetica,sans-Serif" font-size="14.00">Nat</text>
<polygon fill="none" stroke="black" points="8,-366 8,-387 116.75,-387 116.75,-366 8,-366"/>
<text xml:space="preserve" text-anchor="start" x="11" y="-372.75" font-family="Helvetica,sans-Serif" font-size="14.00">clientQAnswered</text>
<polygon fill="none" stroke="black" points="116.75,-366 116.75,-387 219.5,-387 219.5,-366 116.75,-366"/>
<text xml:space="preserve" text-anchor="start" x="157.62" y="-372.75" font-family="Helvetica,sans-Serif" font-size="14.00">Nat</text>
<polygon fill="none" stroke="black" points="8,-345 8,-366 116.75,-366 116.75,-345 8,-345"/>
<text xml:space="preserve" text-anchor="start" x="18.5" y="-351.75" font-family="Helvetica,sans-Serif" font-size="14.00">clientQServfail</text>
<polygon fill="none" stroke="black" points="116.75,-345 116.75,-366 219.5,-366 219.5,-345 116.75,-345"/>
<text xml:space="preserve" text-anchor="start" x="157.62" y="-351.75" font-family="Helvetica,sans-Serif" font-size="14.00">Nat</text>
<polygon fill="none" stroke="black" points="8,-324 8,-345 116.75,-345 116.75,-324 8,-324"/>
<text xml:space="preserve" text-anchor="start" x="11.38" y="-330.75" font-family="Helvetica,sans-Serif" font-size="14.00">clientQStartTime</text>
<polygon fill="none" stroke="black" points="116.75,-324 116.75,-345 219.5,-345 219.5,-324 116.75,-324"/>
<text xml:space="preserve" text-anchor="start" x="134" y="-330.75" font-family="Helvetica,sans-Serif" font-size="14.00">IdFloatMap</text>
<polygon fill="none" stroke="black" points="8,-303 8,-324 116.75,-324 116.75,-303 8,-303"/>
<text xml:space="preserve" text-anchor="start" x="13.62" y="-309.75" font-family="Helvetica,sans-Serif" font-size="14.00">clientQEndTime</text>
<polygon fill="none" stroke="black" points="116.75,-303 116.75,-324 219.5,-324 219.5,-303 116.75,-303"/>
<text xml:space="preserve" text-anchor="start" x="134" y="-309.75" font-family="Helvetica,sans-Serif" font-size="14.00">IdFloatMap</text>
<polygon fill="none" stroke="black" points="8,-282 8,-303 219.5,-303 219.5,-282 8,-282"/>
<text xml:space="preserve" text-anchor="start" x="80.38" y="-288.75" font-family="Helvetica,sans-Serif" font-size="14.00">... (9 more)</text>
</g>
<!-- Nameserver -->
<g id="node3" class="node">
<title>Nameserver</title>
<polygon fill="#e8f4f8" stroke="none" points="27.12,-560 27.12,-812 200.38,-812 200.38,-560 27.12,-560"/>
<polygon fill="#1976d2" stroke="none" points="27.12,-791 27.12,-812 200.38,-812 200.38,-791 27.12,-791"/>
<polygon fill="none" stroke="black" points="27.12,-791 27.12,-812 200.38,-812 200.38,-791 27.12,-791"/>
<text xml:space="preserve" text-anchor="start" x="74.75" y="-796.7" font-family="Helvetica,sans-Serif" font-weight="bold" font-size="14.00" fill="white">Nameserver</text>
<polygon fill="none" stroke="black" points="27.12,-770 27.12,-791 97.62,-791 97.62,-770 27.12,-770"/>
<text xml:space="preserve" text-anchor="start" x="54.88" y="-776.75" font-family="Helvetica,sans-Serif" font-size="14.00">db</text>
<polygon fill="none" stroke="black" points="97.62,-770 97.62,-791 200.38,-791 200.38,-770 97.62,-770"/>
<text xml:space="preserve" text-anchor="start" x="112.25" y="-776.75" font-family="Helvetica,sans-Serif" font-size="14.00">List{Record}</text>
<polygon fill="none" stroke="black" points="27.12,-749 27.12,-770 97.62,-770 97.62,-749 27.12,-749"/>
<text xml:space="preserve" text-anchor="start" x="43.62" y="-755.75" font-family="Helvetica,sans-Serif" font-size="14.00">queue</text>
<polygon fill="none" stroke="black" points="97.62,-749 97.62,-770 200.38,-770 200.38,-749 97.62,-749"/>
<text xml:space="preserve" text-anchor="start" x="128.38" y="-755.75" font-family="Helvetica,sans-Serif" font-size="14.00">Queue</text>
<polygon fill="none" stroke="black" points="27.12,-728 27.12,-749 97.62,-749 97.62,-728 27.12,-728"/>
<text xml:space="preserve" text-anchor="start" x="40.25" y="-734.75" font-family="Helvetica,sans-Serif" font-size="14.00">queries</text>
<polygon fill="none" stroke="black" points="97.62,-728 97.62,-749 200.38,-749 200.38,-728 97.62,-728"/>
<text xml:space="preserve" text-anchor="start" x="115.25" y="-734.75" font-family="Helvetica,sans-Serif" font-size="14.00">List{Query}</text>
<polygon fill="none" stroke="black" points="27.12,-707 27.12,-728 97.62,-728 97.62,-707 27.12,-707"/>
<text xml:space="preserve" text-anchor="start" x="38.38" y="-713.75" font-family="Helvetica,sans-Serif" font-size="14.00">resolver</text>
<polygon fill="none" stroke="black" points="97.62,-707 97.62,-728 200.38,-728 200.38,-707 97.62,-707"/>
<text xml:space="preserve" text-anchor="start" x="124.25" y="-713.75" font-family="Helvetica,sans-Serif" font-size="14.00">Address</text>
<polygon fill="none" stroke="black" points="27.12,-686 27.12,-707 97.62,-707 97.62,-686 27.12,-686"/>
<text xml:space="preserve" text-anchor="start" x="30.12" y="-692.75" font-family="Helvetica,sans-Serif" font-size="14.00">notifyDone</text>
<polygon fill="none" stroke="black" points="97.62,-686 97.62,-707 200.38,-707 200.38,-686 97.62,-686"/>
<text xml:space="preserve" text-anchor="start" x="124.25" y="-692.75" font-family="Helvetica,sans-Serif" font-size="14.00">Address</text>
<polygon fill="none" stroke="black" points="27.12,-665 27.12,-686 97.62,-686 97.62,-665 27.12,-665"/>
<text xml:space="preserve" text-anchor="start" x="53.75" y="-671.75" font-family="Helvetica,sans-Serif" font-size="14.00">init</text>
<polygon fill="none" stroke="black" points="97.62,-665 97.62,-686 200.38,-686 200.38,-665 97.62,-665"/>
<text xml:space="preserve" text-anchor="start" x="135.5" y="-671.75" font-family="Helvetica,sans-Serif" font-size="14.00">Bool</text>
<polygon fill="none" stroke="black" points="27.12,-644 27.12,-665 97.62,-665 97.62,-644 27.12,-644"/>
<text xml:space="preserve" text-anchor="start" x="34.25" y="-650.75" font-family="Helvetica,sans-Serif" font-size="14.00">msgsRcv</text>
<polygon fill="none" stroke="black" points="97.62,-644 97.62,-665 200.38,-665 200.38,-644 97.62,-644"/>
<text xml:space="preserve" text-anchor="start" x="100.62" y="-650.75" font-family="Helvetica,sans-Serif" font-size="14.00">IdAddrFloatMap</text>
<polygon fill="none" stroke="black" points="27.12,-623 27.12,-644 97.62,-644 97.62,-623 27.12,-623"/>
<text xml:space="preserve" text-anchor="start" x="32" y="-629.75" font-family="Helvetica,sans-Serif" font-size="14.00">msgsSent</text>
<polygon fill="none" stroke="black" points="97.62,-623 97.62,-644 200.38,-644 200.38,-623 97.62,-623"/>
<text xml:space="preserve" text-anchor="start" x="100.62" y="-629.75" font-family="Helvetica,sans-Serif" font-size="14.00">IdAddrFloatMap</text>
<polygon fill="none" stroke="black" points="27.12,-602 27.12,-623 97.62,-623 97.62,-602 27.12,-602"/>
<text xml:space="preserve" text-anchor="start" x="38" y="-608.75" font-family="Helvetica,sans-Serif" font-size="14.00">totalRcv</text>
<polygon fill="none" stroke="black" points="97.62,-602 97.62,-623 200.38,-623 200.38,-602 97.62,-602"/>
<text xml:space="preserve" text-anchor="start" x="106.25" y="-608.75" font-family="Helvetica,sans-Serif" font-size="14.00">AddrFloatMap</text>
<polygon fill="none" stroke="black" points="27.12,-581 27.12,-602 97.62,-602 97.62,-581 27.12,-581"/>
<text xml:space="preserve" text-anchor="start" x="35.75" y="-587.75" font-family="Helvetica,sans-Serif" font-size="14.00">totalSent</text>
<polygon fill="none" stroke="black" points="97.62,-581 97.62,-602 200.38,-602 200.38,-581 97.62,-581"/>
<text xml:space="preserve" text-anchor="start" x="106.25" y="-587.75" font-family="Helvetica,sans-Serif" font-size="14.00">AddrFloatMap</text>
<polygon fill="none" stroke="black" points="27.12,-560 27.12,-581 200.38,-581 200.38,-560 27.12,-560"/>
<text xml:space="preserve" text-anchor="start" x="76.62" y="-566.75" font-family="Helvetica,sans-Serif" font-size="14.00">... (14 more)</text>
</g>
<!-- Resolver -->
<g id="node4" class="node">
<title>Resolver</title>
<polygon fill="#e8f4f8" stroke="none" points="8.38,-838 8.38,-1090 219.12,-1090 219.12,-838 8.38,-838"/>
<polygon fill="#1976d2" stroke="none" points="8.38,-1069 8.38,-1090 219.12,-1090 219.12,-1069 8.38,-1069"/>
<polygon fill="none" stroke="black" points="8.38,-1069 8.38,-1090 219.12,-1090 219.12,-1069 8.38,-1069"/>
<text xml:space="preserve" text-anchor="start" x="85.25" y="-1074.7" font-family="Helvetica,sans-Serif" font-weight="bold" font-size="14.00" fill="white">Resolver</text>
<polygon fill="none" stroke="black" points="8.38,-1048 8.38,-1069 112.62,-1069 112.62,-1048 8.38,-1048"/>
<text xml:space="preserve" text-anchor="start" x="42.5" y="-1054.75" font-family="Helvetica,sans-Serif" font-size="14.00">cache</text>
<polygon fill="none" stroke="black" points="112.62,-1048 112.62,-1069 219.12,-1069 219.12,-1048 112.62,-1048"/>
<text xml:space="preserve" text-anchor="start" x="146.38" y="-1054.75" font-family="Helvetica,sans-Serif" font-size="14.00">Cache</text>
<polygon fill="none" stroke="black" points="8.38,-1027 8.38,-1048 112.62,-1048 112.62,-1027 8.38,-1027"/>
<text xml:space="preserve" text-anchor="start" x="11.38" y="-1033.75" font-family="Helvetica,sans-Serif" font-size="14.00">nxdomainCache</text>
<polygon fill="none" stroke="black" points="112.62,-1027 112.62,-1048 219.12,-1048 219.12,-1027 112.62,-1027"/>
<text xml:space="preserve" text-anchor="start" x="115.62" y="-1033.75" font-family="Helvetica,sans-Serif" font-size="14.00">NxdomainCache</text>
<polygon fill="none" stroke="black" points="8.38,-1006 8.38,-1027 112.62,-1027 112.62,-1006 8.38,-1006"/>
<text xml:space="preserve" text-anchor="start" x="20.38" y="-1012.75" font-family="Helvetica,sans-Serif" font-size="14.00">nodataCache</text>
<polygon fill="none" stroke="black" points="112.62,-1006 112.62,-1027 219.12,-1027 219.12,-1006 112.62,-1006"/>
<text xml:space="preserve" text-anchor="start" x="124.62" y="-1012.75" font-family="Helvetica,sans-Serif" font-size="14.00">NodataCache</text>
<polygon fill="none" stroke="black" points="8.38,-985 8.38,-1006 112.62,-1006 112.62,-985 8.38,-985"/>
<text xml:space="preserve" text-anchor="start" x="46.25" y="-991.75" font-family="Helvetica,sans-Serif" font-size="14.00">sbelt</text>
<polygon fill="none" stroke="black" points="112.62,-985 112.62,-1006 219.12,-1006 219.12,-985 112.62,-985"/>
<text xml:space="preserve" text-anchor="start" x="134.75" y="-991.75" font-family="Helvetica,sans-Serif" font-size="14.00">ZoneState</text>
<polygon fill="none" stroke="black" points="8.38,-964 8.38,-985 112.62,-985 112.62,-964 8.38,-964"/>
<text xml:space="preserve" text-anchor="start" x="24.88" y="-970.75" font-family="Helvetica,sans-Serif" font-size="14.00">workBudget</text>
<polygon fill="none" stroke="black" points="112.62,-964 112.62,-985 219.12,-985 219.12,-964 112.62,-964"/>
<text xml:space="preserve" text-anchor="start" x="136.25" y="-970.75" font-family="Helvetica,sans-Serif" font-size="14.00">IdNatMap</text>
<polygon fill="none" stroke="black" points="8.38,-943 8.38,-964 112.62,-964 112.62,-943 8.38,-943"/>
<text xml:space="preserve" text-anchor="start" x="13.25" y="-949.75" font-family="Helvetica,sans-Serif" font-size="14.00">blockedQueries</text>
<polygon fill="none" stroke="black" points="112.62,-943 112.62,-964 219.12,-964 219.12,-943 112.62,-943"/>
<text xml:space="preserve" text-anchor="start" x="121.25" y="-949.75" font-family="Helvetica,sans-Serif" font-size="14.00">QueryStateSet</text>
<polygon fill="none" stroke="black" points="8.38,-922 8.38,-943 112.62,-943 112.62,-922 8.38,-922"/>
<text xml:space="preserve" text-anchor="start" x="23.75" y="-928.75" font-family="Helvetica,sans-Serif" font-size="14.00">sentQueries</text>
<polygon fill="none" stroke="black" points="112.62,-922 112.62,-943 219.12,-943 219.12,-922 112.62,-922"/>
<text xml:space="preserve" text-anchor="start" x="121.25" y="-928.75" font-family="Helvetica,sans-Serif" font-size="14.00">QueryStateSet</text>
<polygon fill="none" stroke="black" points="8.38,-901 8.38,-922 112.62,-922 112.62,-901 8.38,-901"/>
<text xml:space="preserve" text-anchor="start" x="53" y="-907.75" font-family="Helvetica,sans-Serif" font-size="14.00">db</text>
<polygon fill="none" stroke="black" points="112.62,-901 112.62,-922 219.12,-922 219.12,-901 112.62,-901"/>
<text xml:space="preserve" text-anchor="start" x="129.12" y="-907.75" font-family="Helvetica,sans-Serif" font-size="14.00">List{Record}</text>
<polygon fill="none" stroke="black" points="8.38,-880 8.38,-901 112.62,-901 112.62,-880 8.38,-880"/>
<text xml:space="preserve" text-anchor="start" x="41.75" y="-886.75" font-family="Helvetica,sans-Serif" font-size="14.00">queue</text>
<polygon fill="none" stroke="black" points="112.62,-880 112.62,-901 219.12,-901 219.12,-880 112.62,-880"/>
<text xml:space="preserve" text-anchor="start" x="145.25" y="-886.75" font-family="Helvetica,sans-Serif" font-size="14.00">Queue</text>
<polygon fill="none" stroke="black" points="8.38,-859 8.38,-880 112.62,-880 112.62,-859 8.38,-859"/>
<text xml:space="preserve" text-anchor="start" x="38.38" y="-865.75" font-family="Helvetica,sans-Serif" font-size="14.00">queries</text>
<polygon fill="none" stroke="black" points="112.62,-859 112.62,-880 219.12,-880 219.12,-859 112.62,-859"/>
<text xml:space="preserve" text-anchor="start" x="132.12" y="-865.75" font-family="Helvetica,sans-Serif" font-size="14.00">List{Query}</text>
<polygon fill="none" stroke="black" points="8.38,-838 8.38,-859 219.12,-859 219.12,-838 8.38,-838"/>
<text xml:space="preserve" text-anchor="start" x="76.62" y="-844.75" font-family="Helvetica,sans-Serif" font-size="14.00">... (21 more)</text>
</g>
</g>
</svg>
