<?xml version="1.0" encoding="UTF-8" standalone="no"?>
<!DOCTYPE svg PUBLIC "-//W3C//DTD SVG 1.1//EN"
 "http://www.w3.org/Graphics/SVG/1.1/DTD/svg11.dtd">
<!-- Generated by graphviz version 14.1.3 (20260303.0454)
 -->
<!-- Title: ModuleDeps Pages: 1 -->
<svg width="502pt" height="548pt"
 viewBox="0.00 0.00 502.00 548.00" xmlns="http://www.w3.org/2000/svg" xmlns:xlink="http://www.w3.org/1999/xlink">
<g id="graph0" class="graph" transform="scale(1 1) rotate(0) translate(4 544)">
<title>ModuleDeps</title>
<polygon fill="white" stroke="none" points="-4,4 -4,-544 497.62,-544 497.62,4 -4,4"/>
<!-- ADDRESS -->
<g id="node1" class="node">
<title>ADDRESS</title>
<polygon fill="#e8f4f8" stroke="black" points="275.62,-36 194.38,-36 194.38,0 275.62,0 275.62,-36"/>
<text xml:space="preserve" text-anchor="middle" x="235" y="-12.2" font-family="Helvetica,sans-Serif" font-size="14.00">ADDRESS</text>
</g>
<!-- ACTOR&#45;MODEL -->
<g id="node2" class="node">
<title>ACTOR&#45;MODEL</title>
<polygon fill="#e8f4f8" stroke="black" points="493.62,-180 376.38,-180 376.38,-144 493.62,-144 493.62,-180"/>
<text xml:space="preserve" text-anchor="middle" x="435" y="-156.2" font-family="Helvetica,sans-Serif" font-size="14.00">ACTOR&#45;MODEL</text>
</g>
<!-- ACTOR&#45;MODEL&#45;&gt;ADDRESS -->
<g id="edge1" class="edge">
<title>ACTOR&#45;MODEL&#45;&gt;ADDRESS</title>
<path fill="none" stroke="#666666" stroke-dasharray="5,2" d="M410.48,-143.59C374.92,-118.34 308.92,-71.48 268.78,-42.98"/>
<polygon fill="#666666" stroke="#666666" points="270.83,-40.14 260.65,-37.21 266.77,-45.85 270.83,-40.14"/>
</g>
<!-- SORTS -->
<g id="node3" class="node">
<title>SORTS</title>
<polygon fill="#e8f4f8" stroke="black" points="266.62,-108 203.38,-108 203.38,-72 266.62,-72 266.62,-108"/>
<text xml:space="preserve" text-anchor="middle" x="235" y="-84.2" font-family="Helvetica,sans-Serif" font-size="14.00">SORTS</text>
</g>
<!-- SORTS&#45;&gt;ADDRESS -->
<g id="edge2" class="edge">
<title>SORTS&#45;&gt;ADDRESS</title>
<path fill="none" stroke="#0066cc" d="M235,-71.7C235,-64.41 235,-55.73 235,-47.54"/>
<polygon fill="#0066cc" stroke="#0066cc" points="238.5,-47.62 235,-37.62 231.5,-47.62 238.5,-47.62"/>
</g>
<!-- SORTS&#45;AUX -->
<g id="node4" class="node">
<title>SORTS&#45;AUX</title>
<polygon fill="#e8f4f8" stroke="black" points="358.75,-180 263.25,-180 263.25,-144 358.75,-144 358.75,-180"/>
<text xml:space="preserve" text-anchor="middle" x="311" y="-156.2" font-family="Helvetica,sans-Serif" font-size="14.00">SORTS&#45;AUX</text>
</g>
<!-- SORTS&#45;AUX&#45;&gt;SORTS -->
<g id="edge3" class="edge">
<title>SORTS&#45;AUX&#45;&gt;SORTS</title>
<path fill="none" stroke="#0066cc" d="M292.21,-143.7C283.17,-135.37 272.16,-125.22 262.22,-116.07"/>
<polygon fill="#0066cc" stroke="#0066cc" points="264.67,-113.57 254.95,-109.37 259.93,-118.72 264.67,-113.57"/>
</g>
<!-- MSG -->
<g id="node5" class="node">
<title>MSG</title>
<polygon fill="#e8f4f8" stroke="black" points="407,-252 353,-252 353,-216 407,-216 407,-252"/>
<text xml:space="preserve" text-anchor="middle" x="380" y="-228.2" font-family="Helvetica,sans-Serif" font-size="14.00">MSG</text>
</g>
<!-- MSG&#45;&gt;ACTOR&#45;MODEL -->
<g id="edge5" class="edge">
<title>MSG&#45;&gt;ACTOR&#45;MODEL</title>
<path fill="none" stroke="#0066cc" d="M393.6,-215.7C399.92,-207.64 407.58,-197.89 414.59,-188.98"/>
<polygon fill="#0066cc" stroke="#0066cc" points="417.2,-191.32 420.63,-181.29 411.7,-187 417.2,-191.32"/>
</g>
<!-- MSG&#45;&gt;SORTS&#45;AUX -->
<g id="edge4" class="edge">
<title>MSG&#45;&gt;SORTS&#45;AUX</title>
<path fill="none" stroke="#0066cc" d="M362.94,-215.7C354.76,-207.39 344.79,-197.28 335.78,-188.14"/>
<polygon fill="#0066cc" stroke="#0066cc" points="338.44,-185.85 328.92,-181.18 333.45,-190.76 338.44,-185.85"/>
</g>
<!-- NODE -->
<g id="node6" class="node">
<title>NODE</title>
<polygon fill="#e8f4f8" stroke="black" points="319.88,-324 264.12,-324 264.12,-288 319.88,-288 319.88,-324"/>
<text xml:space="preserve" text-anchor="middle" x="292" y="-300.2" font-family="Helvetica,sans-Serif" font-size="14.00">NODE</text>
</g>
<!-- NODE&#45;&gt;ACTOR&#45;MODEL -->
<g id="edge6" class="edge">
<title>NODE&#45;&gt;ACTOR&#45;MODEL</title>
<path fill="none" stroke="#0066cc" d="M298.97,-287.52C307.36,-268.18 322.98,-236.99 344,-216 355.88,-204.14 370.94,-193.97 385.38,-185.8"/>
<polygon fill="#0066cc" stroke="#0066cc" points="386.76,-189.03 393.89,-181.19 383.43,-182.87 386.76,-189.03"/>
</g>
<!-- NODE&#45;&gt;SORTS&#45;AUX -->
<g id="edge7" class="edge">
<title>NODE&#45;&gt;SORTS&#45;AUX</title>
<path fill="none" stroke="#0066cc" d="M294.33,-287.59C297.54,-263.61 303.35,-220.14 307.2,-191.42"/>
<polygon fill="#0066cc" stroke="#0066cc" points="310.65,-191.99 308.51,-181.61 303.71,-191.06 310.65,-191.99"/>
</g>
<!-- NODE&#45;&gt;MSG -->
<g id="edge8" class="edge">
<title>NODE&#45;&gt;MSG</title>
<path fill="none" stroke="#0066cc" d="M313.75,-287.7C324.44,-279.2 337.49,-268.81 349.18,-259.51"/>
<polygon fill="#0066cc" stroke="#0066cc" points="351.36,-262.25 357.01,-253.29 347,-256.78 351.36,-262.25"/>
</g>
<!-- MONITOR -->
<g id="node7" class="node">
<title>MONITOR</title>
<polygon fill="#e8f4f8" stroke="black" points="419.62,-324 338.38,-324 338.38,-288 419.62,-288 419.62,-324"/>
<text xml:space="preserve" text-anchor="middle" x="379" y="-300.2" font-family="Helvetica,sans-Serif" font-size="14.00">MONITOR</text>
</g>
<!-- MONITOR&#45;&gt;ACTOR&#45;MODEL -->
<g id="edge9" class="edge">
<title>MONITOR&#45;&gt;ACTOR&#45;MODEL</title>
<path fill="none" stroke="#0066cc" d="M393.57,-287.91C401.31,-278.01 410.37,-264.97 416,-252 424.38,-232.72 429.18,-209.43 431.86,-191.52"/>
<polygon fill="#0066cc" stroke="#0066cc" points="435.3,-192.23 433.16,-181.85 428.36,-191.3 435.3,-192.23"/>
</g>
<!-- MONITOR&#45;&gt;MSG -->
<g id="edge10" class="edge">
<title>MONITOR&#45;&gt;MSG</title>
<path fill="none" stroke="#0066cc" d="M379.25,-287.7C379.35,-280.41 379.48,-271.73 379.59,-263.54"/>
<polygon fill="#0066cc" stroke="#0066cc" points="383.09,-263.67 379.73,-253.62 376.09,-263.57 383.09,-263.67"/>
</g>
<!-- AUX&#45;COMMON -->
<g id="node8" class="node">
<title>AUX&#45;COMMON</title>
<polygon fill="#fff4e6" stroke="black" points="335.12,-396 224.88,-396 220.88,-392 220.88,-360 331.12,-360 335.12,-364 335.12,-396"/>
<polyline fill="none" stroke="black" points="331.12,-392 220.88,-392"/>
<polyline fill="none" stroke="black" points="331.12,-392 331.12,-360"/>
<polyline fill="none" stroke="black" points="331.12,-392 335.12,-396"/>
<text xml:space="preserve" text-anchor="middle" x="278" y="-372.2" font-family="Helvetica,sans-Serif" font-size="14.00">AUX&#45;COMMON</text>
</g>
<!-- AUX&#45;COMMON&#45;&gt;SORTS -->
<g id="edge13" class="edge">
<title>AUX&#45;COMMON&#45;&gt;SORTS</title>
<path fill="none" stroke="#0066cc" d="M268.86,-359.84C263.9,-349.7 258.15,-336.45 255,-324 236.81,-252.04 234.4,-164.04 234.51,-119.6"/>
<polygon fill="#0066cc" stroke="#0066cc" points="238.01,-119.81 234.58,-109.78 231.01,-119.76 238.01,-119.81"/>
</g>
<!-- AUX&#45;COMMON&#45;&gt;NODE -->
<g id="edge11" class="edge">
<title>AUX&#45;COMMON&#45;&gt;NODE</title>
<path fill="none" stroke="#0066cc" d="M281.46,-359.7C282.94,-352.32 284.7,-343.52 286.35,-335.25"/>
<polygon fill="#0066cc" stroke="#0066cc" points="289.75,-336.08 288.28,-325.59 282.89,-334.71 289.75,-336.08"/>
</g>
<!-- AUX&#45;COMMON&#45;&gt;MONITOR -->
<g id="edge12" class="edge">
<title>AUX&#45;COMMON&#45;&gt;MONITOR</title>
<path fill="none" stroke="#0066cc" d="M303.23,-359.52C315.85,-350.76 331.32,-340.04 344.98,-330.58"/>
<polygon fill="#0066cc" stroke="#0066cc" points="346.63,-333.7 352.85,-325.12 342.64,-327.94 346.63,-333.7"/>
</g>
<!-- PARAMETERS&#45;COMMON -->
<g id="node9" class="node">
<title>PARAMETERS&#45;COMMON</title>
<polygon fill="#fff4e6" stroke="black" points="208.12,-252 31.88,-252 27.88,-248 27.88,-216 204.12,-216 208.12,-220 208.12,-252"/>
<polyline fill="none" stroke="black" points="204.12,-248 27.88,-248"/>
<polyline fill="none" stroke="black" points="204.12,-248 204.12,-216"/>
<polyline fill="none" stroke="black" points="204.12,-248 208.12,-252"/>
<text xml:space="preserve" text-anchor="middle" x="118" y="-228.2" font-family="Helvetica,sans-Serif" font-size="14.00">PARAMETERS&#45;COMMON</text>
</g>
<!-- AUX&#45;COMMON&#45;&gt;PARAMETERS&#45;COMMON -->
<g id="edge14" class="edge">
<title>AUX&#45;COMMON&#45;&gt;PARAMETERS&#45;COMMON</title>
<path fill="none" stroke="#0066cc" d="M258.38,-359.59C230.16,-334.54 177.97,-288.22 145.79,-259.66"/>
<polygon fill="#0066cc" stroke="#0066cc" points="148.21,-257.14 138.41,-253.12 143.57,-262.37 148.21,-257.14"/>
</g>
<!-- PARAMETERS&#45;COMMON&#45;&gt;SORTS -->
<g id="edge15" class="edge">
<title>PARAMETERS&#45;COMMON&#45;&gt;SORTS</title>
<path fill="none" stroke="#0066cc" d="M132.35,-215.59C152.72,-190.86 190.17,-145.41 213.77,-116.77"/>
<polygon fill="#0066cc" stroke="#0066cc" points="216.28,-119.22 219.94,-109.28 210.88,-114.77 216.28,-119.22"/>
</g>
<!-- LABEL&#45;GRAPH -->
<g id="node10" class="node">
<title>LABEL&#45;GRAPH</title>
<polygon fill="#fff4e6" stroke="black" points="376.62,-468 269.38,-468 265.38,-464 265.38,-432 372.62,-432 376.62,-436 376.62,-468"/>
<polyline fill="none" stroke="black" points="372.62,-464 265.38,-464"/>
<polyline fill="none" stroke="black" points="372.62,-464 372.62,-432"/>
<polyline fill="none" stroke="black" points="372.62,-464 376.62,-468"/>
<text xml:space="preserve" text-anchor="middle" x="321" y="-444.2" font-family="Helvetica,sans-Serif" font-size="14.00">LABEL&#45;GRAPH</text>
</g>
<!-- LABEL&#45;GRAPH&#45;&gt;AUX&#45;COMMON -->
<g id="edge16" class="edge">
<title>LABEL&#45;GRAPH&#45;&gt;AUX&#45;COMMON</title>
<path fill="none" stroke="#0066cc" d="M310.37,-431.7C305.58,-423.9 299.81,-414.51 294.48,-405.83"/>
<polygon fill="#0066cc" stroke="#0066cc" points="297.52,-404.08 289.3,-397.39 291.55,-407.75 297.52,-404.08"/>
</g>
<!-- AUX -->
<g id="node11" class="node">
<title>AUX</title>
<polygon fill="#fff4e6" stroke="black" points="247,-468 197,-468 193,-464 193,-432 243,-432 247,-436 247,-468"/>
<polyline fill="none" stroke="black" points="243,-464 193,-464"/>
<polyline fill="none" stroke="black" points="243,-464 243,-432"/>
<polyline fill="none" stroke="black" points="243,-464 247,-468"/>
<text xml:space="preserve" text-anchor="middle" x="220" y="-444.2" font-family="Helvetica,sans-Serif" font-size="14.00">AUX</text>
</g>
<!-- AUX&#45;&gt;ADDRESS -->
<g id="edge18" class="edge">
<title>AUX&#45;&gt;ADDRESS</title>
<path fill="none" stroke="#0066cc" d="M192.58,-444.56C133.61,-433.27 0,-397.69 0,-307 0,-307 0,-307 0,-161 0,-76.11 113.72,-40.61 182.95,-26.86"/>
<polygon fill="#0066cc" stroke="#0066cc" points="183.4,-30.34 192.58,-25.05 182.1,-23.46 183.4,-30.34"/>
</g>
<!-- AUX&#45;&gt;AUX&#45;COMMON -->
<g id="edge17" class="edge">
<title>AUX&#45;&gt;AUX&#45;COMMON</title>
<path fill="none" stroke="#0066cc" d="M234.34,-431.7C241.08,-423.56 249.26,-413.69 256.7,-404.7"/>
<polygon fill="#0066cc" stroke="#0066cc" points="259.18,-407.2 262.86,-397.27 253.79,-402.74 259.18,-407.2"/>
</g>
<!-- DNS -->
<g id="node12" class="node">
<title>DNS</title>
<polygon fill="#fff4e6" stroke="black" points="339,-540 289,-540 285,-536 285,-504 335,-504 339,-508 339,-540"/>
<polyline fill="none" stroke="black" points="335,-536 285,-536"/>
<polyline fill="none" stroke="black" points="335,-536 335,-504"/>
<polyline fill="none" stroke="black" points="335,-536 339,-540"/>
<text xml:space="preserve" text-anchor="middle" x="312" y="-516.2" font-family="Helvetica,sans-Serif" font-size="14.00">DNS</text>
</g>
<!-- DNS&#45;&gt;MSG -->
<g id="edge20" class="edge">
<title>DNS&#45;&gt;MSG</title>
<path fill="none" stroke="#0066cc" d="M339.46,-507.27C355.17,-498.13 374.07,-484.72 386,-468 424.79,-413.63 419.34,-390.09 429,-324 431.31,-308.17 434.83,-302.9 429,-288 425.01,-277.8 418.03,-268.39 410.57,-260.42"/>
<polygon fill="#0066cc" stroke="#0066cc" points="413.06,-257.96 403.49,-253.42 408.15,-262.94 413.06,-257.96"/>
</g>
<!-- DNS&#45;&gt;AUX -->
<g id="edge19" class="edge">
<title>DNS&#45;&gt;AUX</title>
<path fill="none" stroke="#0066cc" d="M289.26,-503.7C277.98,-495.11 264.17,-484.61 251.86,-475.24"/>
<polygon fill="#0066cc" stroke="#0066cc" points="254.08,-472.53 244,-469.26 249.84,-478.1 254.08,-472.53"/>
</g>
</g>
</svg>
